<?xml version="1.0" encoding="utf-8"?>
<!-- Generator: Adobe Illustrator 25.2.1, SVG Export Plug-In . SVG Version: 6.00 Build 0)  -->
<svg version="1.1"
	 id="svg2166" xmlns:cc="http://creativecommons.org/ns#" xmlns:dc="http://purl.org/dc/elements/1.1/" xmlns:rdf="http://www.w3.org/1999/02/22-rdf-syntax-ns#" xmlns:svg="http://www.w3.org/2000/svg"
	 xmlns="http://www.w3.org/2000/svg" xmlns:xlink="http://www.w3.org/1999/xlink" x="0px" y="0px" viewBox="0 0 343.9 156.7"
	 style="enable-background:new 0 0 343.9 156.7;" xml:space="preserve">
<style type="text/css">
	
		.st0{fill-rule:evenodd;clip-rule:evenodd;fill:#BFE3FF;stroke:#000000;stroke-width:2.2708;stroke-linecap:round;stroke-linejoin:bevel;stroke-miterlimit:2;}
	.st1{fill:none;stroke:#000000;stroke-width:2.2708;stroke-linecap:round;stroke-linejoin:bevel;stroke-miterlimit:2;}
	.st2{fill-rule:evenodd;clip-rule:evenodd;fill-opacity:0.1469;}
	.st3{fill-rule:evenodd;clip-rule:evenodd;fill-opacity:0.1517;}
	.st4{fill:#F39024;}
	.st5{fill:#1D3EAA;}
	.st6{fill:#4ABC2A;}
	.st7{fill:#D21B37;}
	.st8{fill:#1584FF;}
	.st9{fill:#D44359;}
</style>
<g id="layer1" transform="translate(-43.89077,-77.256626)">
	<g id="g3708" transform="matrix(0.37961162,0,0,0.25056561,34.542401,76.83601)">
		<ellipse id="path2711" class="st0" cx="239.6" cy="448.8" rx="189.7" ry="153.4"/>
		<ellipse id="path2711-9" class="st1" cx="241.6" cy="413.6" rx="189.7" ry="153.4"/>
		<path id="path2728" class="st2" d="M240.1,264c-48.4,0.5-98.1,15.2-137.1,49.6c-23.1,20.7-42.5,50.1-46.8,84.3
			c0.6,1.3,1.6-2.4,2.1-2.8c18.5-40.4,52.7-67.8,88.8-83.9c56.1-24.6,119.5-25.6,176.4-3.8c38.1,14.8,74.4,41.9,95.1,82.8
			c4,7.3,6.3,15.9,9.5,23.4c0-31-12.5-60.6-31-82.5c-31.3-37.1-75-57.2-118.8-64.3C265.7,264.9,252.9,263.9,240.1,264L240.1,264z"/>
		<path id="path2730" class="st2" d="M52.8,446.7c0.3,27.6,9.2,54.7,24.5,75.7c27,37.5,67,59.2,107.5,69.5
			c48.8,12.1,100.8,7.8,147.4-13.3c29.3-13.9,57.2-34.7,75.6-65.3c8.8-14.7,15.2-31.8,17.4-49.6c-3,3.6-4.6,9.2-7.2,13.4
			c-20.3,37-53.8,61.5-88.7,76.3c-51,20.9-107.6,22.5-159.6,5.8C129.8,546.2,91.3,521,67.4,481C61.1,470.5,56.3,458.8,52.8,446.7
			L52.8,446.7z"/>
		<path id="path2734" class="st3" d="M126,329.6c-30.5,18.6-58.5,47.6-69.7,86.4c-4.1,12.4,0.7,25.6,4.2,37.4
			c6.1,18,16.2,33.8,28.3,46.9c22.9,26.6,39.5,38.5,70.4,48.4C25.1,412.3,88,421.3,126,329.6z"/>
		<path id="path3776" class="st4" d="M137.3,429.1c-0.9-0.5-1.6-1.3-2-2.6c-0.3-1-0.3-3,0-4.1c0.3-0.9,1-1.9,1.5-2.2
			c0.3-0.1,0.3-0.2,0.3-9.8v-9.7H135h-2.1v2.5c0,2.9,0,3-1.2,4.8l-0.9,1.3v2.2c0,2.1,0,2.2,0.3,2.3c0.4,0.2,1.2,1.3,1.5,2.2
			c0.4,1.1,0.4,3.1,0,4.2c-0.6,1.7-1.5,2.6-2.8,2.6c-1.2,0-2.2-0.9-2.8-2.6c-0.4-1.1-0.4-3.1,0-4.2c0.3-0.9,1-1.9,1.5-2.2
			c0.3-0.1,0.3-0.3,0.3-2.8c0-3.1,0-3.2,1.2-5l0.9-1.3v-2v-2h-1.6c-0.9,0-1.8-0.1-1.9-0.2c-0.5-0.3-0.6-1-0.6-3.7v-2.5h-1.3h-1.3
			l-0.8,1.3c-1.2,1.8-1.2,1.9-3.3,1.9c-1.7,0-1.8,0-1.8,0.4c-0.1,0.7-0.8,1.8-1.4,2.2c-0.7,0.6-2,0.6-2.7,0.1
			c-1.2-0.9-1.8-2.4-1.8-4.3c0-1.9,0.6-3.3,1.7-4.2c0.7-0.6,2-0.6,2.8,0c0.6,0.5,1.3,1.6,1.4,2.2c0.1,0.4,0.2,0.4,1.6,0.4h1.5
			l0.8-1.3c1.2-1.8,1.3-1.9,3.2-1.9h1.6v-3.2V385h-6.4c-6.3,0-6.4,0-6.5,0.4c-0.1,0.7-0.8,1.8-1.4,2.2c-0.7,0.6-2,0.6-2.8,0
			c-1.1-0.9-1.7-2.3-1.7-4.2c0-1.9,0.6-3.4,1.8-4.3c0.7-0.5,2-0.5,2.7,0.1c0.6,0.5,1.3,1.6,1.4,2.2c0.1,0.4,0.1,0.4,6.5,0.4h6.4
			v-3.2v-3.2H125c-1.9,0-2,0-3.2-1.9l-0.8-1.3h-1.5c-1.4,0-1.5,0-1.6,0.4c-0.1,0.7-0.8,1.8-1.4,2.2c-0.7,0.6-2,0.6-2.7,0.1
			c-1.2-0.9-1.8-2.4-1.8-4.3c0-1.9,0.6-3.4,1.8-4.3c0.7-0.5,2-0.5,2.7,0.1c0.6,0.5,1.3,1.6,1.4,2.2c0.1,0.4,0.2,0.4,1.8,0.4
			c2.1,0,2.1,0,3.3,1.9l0.8,1.3h1.3h1.3v-2.5c0-1.4,0.1-2.7,0.1-2.9c0.2-0.8,0.7-0.9,2.4-0.9h1.6v-2v-2l-0.9-1.3
			c-1.2-1.8-1.2-1.9-1.2-5c0-2.5,0-2.7-0.3-2.8c-0.4-0.2-1.2-1.3-1.5-2.2c-0.4-1.1-0.4-3.1,0-4.2c0.6-1.7,1.5-2.6,2.8-2.6
			c1.2,0,2.2,0.9,2.8,2.6c0.4,1.1,0.4,3.1,0,4.2c-0.3,0.9-1,1.9-1.5,2.2c-0.3,0.1-0.3,0.3-0.3,2.3v2.2l0.9,1.3
			c1.2,1.8,1.2,1.9,1.2,4.8v2.5h2.1h2.1v-9.7c0-9.6,0-9.7-0.3-9.8c-0.4-0.2-1.2-1.3-1.5-2.2c-0.4-1.1-0.4-3.1,0-4.2
			c0.6-1.7,1.5-2.6,2.8-2.6c1.2,0,2.2,0.9,2.8,2.6c0.4,1.1,0.4,3.1,0,4.2c-0.3,0.9-1,1.9-1.5,2.2c-0.3,0.1-0.3,0.2-0.3,9.8v9.7h2.1
			h2.1v-2.5c0-2.9,0-3,1.2-4.8l0.9-1.3v-2.2c0-2.1,0-2.2-0.3-2.3c-0.4-0.2-1.2-1.3-1.5-2.2c-0.4-1.1-0.4-3.1,0-4.2
			c0.6-1.7,1.5-2.6,2.8-2.6c1.2,0,2.2,0.9,2.8,2.6c0.4,1.1,0.4,3.1,0,4.2c-0.3,0.9-1,1.9-1.5,2.2c-0.3,0.1-0.3,0.3-0.3,2.8
			c0,3.1,0,3.2-1.2,5l-0.9,1.3v2v2h1.6c0.9,0,1.8,0.1,1.9,0.2c0.5,0.3,0.6,1,0.6,3.7v2.5h1.3h1.3l0.8-1.3c1.2-1.8,1.2-1.9,3.3-1.9
			c1.7,0,1.8,0,1.8-0.4c0.1-0.7,0.8-1.8,1.4-2.2c0.7-0.6,2-0.6,2.7-0.1c1.2,0.9,1.8,2.4,1.8,4.3s-0.6,3.4-1.8,4.3
			c-0.7,0.5-2,0.5-2.7-0.1c-0.6-0.5-1.3-1.6-1.4-2.2c-0.1-0.4-0.2-0.4-1.6-0.4h-1.5l-0.8,1.3c-1.2,1.8-1.3,1.9-3.2,1.9h-1.6v3.2v3.2
			h6.4c6.3,0,6.4,0,6.5-0.4c0.1-0.7,0.8-1.8,1.4-2.2c0.7-0.6,2-0.6,2.8,0c1.1,0.9,1.7,2.3,1.7,4.2c0,1.9-0.6,3.4-1.8,4.3
			c-0.7,0.5-2,0.5-2.7-0.1c-0.6-0.5-1.3-1.6-1.4-2.2c-0.1-0.4-0.1-0.4-6.5-0.4h-6.4v3.2v3.2h1.6c1.9,0,2,0,3.2,1.9l0.8,1.3h1.5
			c1.4,0,1.5,0,1.6-0.4c0.1-0.7,0.8-1.8,1.4-2.2c0.7-0.6,2-0.6,2.8,0c2.3,1.8,2.3,6.6,0,8.4c-0.7,0.6-2,0.6-2.8,0
			c-0.6-0.5-1.3-1.6-1.4-2.2c-0.1-0.4-0.2-0.4-1.8-0.4c-2.1,0-2.1,0-3.3-1.9l-0.8-1.3H151h-1.3v2.6c0,1.4,0,2.7-0.1,2.9
			c-0.2,0.7-0.8,0.9-2.5,0.9h-1.6v2v2l0.9,1.3c1.2,1.8,1.2,1.9,1.2,5c0,2.5,0,2.7,0.3,2.8c0.4,0.2,1.2,1.3,1.5,2.2
			c0.4,1.1,0.4,3.1,0,4.2c-0.6,1.7-1.5,2.6-2.8,2.6c-1.3,0-2.2-0.9-2.8-2.7c-0.3-1-0.3-3,0-4.1c0.3-0.9,1-1.9,1.5-2.2
			c0.3-0.1,0.3-0.3,0.3-2.3v-2.2l-0.9-1.3c-1.2-1.8-1.2-1.9-1.2-4.8v-2.5h-2.1h-2.1v9.7c0,9.6,0,9.7,0.3,9.8
			c0.4,0.2,1.2,1.3,1.5,2.2c0.4,1.1,0.4,3.1,0,4.1c-0.3,1-0.8,1.8-1.4,2.2C139,429.2,137.8,429.4,137.3,429.1L137.3,429.1z
			 M138.9,425.7c0.2-0.3,0.3-0.7,0.3-1.1s-0.1-0.8-0.3-1.1c-0.6-1-1.8-0.3-1.8,1.1c0,0.8,0.5,1.6,1,1.6
			C138.4,426.2,138.7,426,138.9,425.7L138.9,425.7z M130.5,419.3c0.6-1,0.2-2.7-0.7-2.7c-0.5,0-1,0.8-1,1.6c0,0.8,0.5,1.6,1,1.6
			C130,419.8,130.3,419.6,130.5,419.3z M147.2,419.3c0.2-0.3,0.3-0.7,0.3-1.1c0-0.4-0.1-0.8-0.3-1.1c-0.2-0.3-0.5-0.5-0.7-0.5
			c-0.3,0-0.5,0.2-0.7,0.5c-0.2,0.3-0.3,0.7-0.3,1.1c0,0.4,0.1,0.8,0.3,1.1c0.2,0.3,0.5,0.5,0.7,0.5
			C146.7,419.8,147,419.6,147.2,419.3z M115.9,397.2c0.6-1,0.2-2.7-0.7-2.7c-0.5,0-1,0.8-1,1.6c0,0.8,0.5,1.6,1,1.6
			C115.4,397.6,115.7,397.5,115.9,397.2L115.9,397.2z M161.9,397.2c0.2-0.3,0.3-0.7,0.3-1.1c0-0.4-0.1-0.8-0.3-1.1
			c-0.2-0.3-0.5-0.5-0.7-0.5c-0.3,0-0.5,0.2-0.7,0.5c-0.2,0.3-0.3,0.7-0.3,1.1c0,0.4,0.1,0.8,0.3,1.1c0.2,0.3,0.5,0.5,0.7,0.5
			S161.7,397.5,161.9,397.2z M143,390.7l0.4-0.6v-6.9v-6.9L143,376l-0.3-0.5h-4.6h-4.6l-0.3,0.5l-0.3,0.5v6.9v6.9l0.3,0.5l0.3,0.5
			h4.5h4.5L143,390.7z M111.7,384.5c0.6-1,0.2-2.7-0.7-2.7c-0.5,0-1,0.8-1,1.6c0,0.8,0.5,1.6,1,1.6
			C111.2,385,111.5,384.8,111.7,384.5L111.7,384.5z M166,384.5c0.6-1,0.2-2.7-0.7-2.7c-0.5,0-1,0.8-1,1.6c0,0.4,0.1,0.8,0.3,1.1
			c0.2,0.3,0.5,0.5,0.7,0.5C165.6,385,165.8,384.8,166,384.5z M115.9,371.8c0.2-0.3,0.3-0.7,0.3-1.1c0-0.4-0.1-0.8-0.3-1.1
			c-0.2-0.3-0.5-0.5-0.7-0.5c-0.3,0-0.5,0.2-0.7,0.5c-0.2,0.3-0.3,0.7-0.3,1.1c0,0.4,0.1,0.8,0.3,1.1c0.2,0.3,0.5,0.5,0.7,0.5
			C115.4,372.3,115.7,372.1,115.9,371.8z M161.9,371.8c0.6-1,0.2-2.7-0.7-2.7c-0.5,0-1,0.8-1,1.6c0,0.8,0.5,1.6,1,1.6
			C161.4,372.3,161.7,372.1,161.9,371.8z M130.5,349.6c0.6-1,0.2-2.7-0.7-2.7c-0.3,0-0.5,0.2-0.7,0.5c-0.2,0.3-0.3,0.7-0.3,1.1
			s0.1,0.8,0.3,1.1c0.2,0.3,0.5,0.5,0.7,0.5C130,350.1,130.3,349.9,130.5,349.6z M147.2,349.6c0.6-1,0.2-2.7-0.7-2.7
			c-0.5,0-1,0.8-1,1.6c0,0.8,0.5,1.6,1,1.6C146.7,350.1,147,349.9,147.2,349.6z M138.9,343.3c0.6-1,0.2-2.7-0.7-2.7
			c-0.3,0-0.5,0.2-0.7,0.5c-0.6,1-0.2,2.7,0.7,2.7C138.4,343.8,138.7,343.6,138.9,343.3z"/>
		<path id="path3834" class="st5" d="M187.9,535.5c-1.1-0.5-2-1.4-2.6-3c-0.1-0.3-0.2-0.6-0.1-0.7c0-0.1-0.1-0.1-0.2-0.3
			c-0.1-0.2-0.2-0.4-0.3-0.5c-0.3-0.1-1.3-1.1-1.6-1.5c-0.3-0.6-0.8-1.8-1-2.6c-0.1-0.7-0.1-1.5-0.1-10.8v-10.1l-2.6,0
			c-1.4,0-2.7-0.1-2.8-0.1c-0.1-0.1-0.1,0.2-0.1,4.5v4.6l0.4,0.3c0.6,0.4,1.5,1.7,1.8,2.6c0.8,2.2,0.7,4.7-0.3,6.7
			c-1.1,2.5-3.5,3.3-5.3,1.8c-1-0.8-1.8-2.3-2.1-4.1c-0.5-2.7,0.4-5.7,2.1-7l0.5-0.4l0-5.5l0-5.5l-0.6-1l-0.6-1l-3.3,0
			c-3,0-3.3,0.1-3.7,0.3c-1,0.6-1.9,1.8-2.3,3.2c-0.4,1.1-0.5,1.9-0.5,3.7l0,1.5l0.5,0.4c0.7,0.5,1.5,1.7,1.8,2.8
			c0.3,1.1,0.4,1.4,0.4,3.1c0,1.3,0,1.4-0.3,2.4c-0.6,1.9-1.8,3.3-3.2,3.6c-1.6,0.4-3.3-0.8-4.2-2.9c-0.8-1.8-0.8-4.5-0.1-6.4
			c0.3-0.9,1.1-2.1,1.7-2.5l0.5-0.4l0-2.2c0-2.3,0.1-2.8,0.5-4.3c0.6-2.3,2-4.4,3.5-5.4c1.2-0.8,2.1-1,5-1c2.1,0,2.2,0,2.2-0.2
			c0-0.1-0.1-2-0.1-4.2l0-3.9l-4.4,0c-2.4,0-5,0-5.7,0l-1.3,0l-0.2,0.7c-0.4,1.4-1.3,2.6-2.4,3.1c-1,0.5-2.3,0.4-3.2-0.4
			c-0.8-0.6-1.9-2.4-1.8-2.8c0-0.1,0-0.1,0-0.1c0,0-0.2-0.3-0.2-0.8c-0.8-4.1,1.2-8.2,4-8.2c0.6,0,1.1,0.3,1.6,0.5
			c0.2,0.1,0.1,0.1,0.5,0.4c0.4,0.3,1.3,1.6,1.6,2.5l0.2,0.8l5.7,0l5.7,0v-4.2v-4.2h-1.5h-1.5l-0.3,0.8c-0.5,1.6-1.7,2.9-2.8,3.2
			c-1.7,0.5-3.4-0.5-4.3-2.6c-0.5-1.2-0.7-2-0.7-3.7c0-1.4,0-1.5,0.3-2.4c1.1-3.4,3.7-4.7,5.9-2.9c0.6,0.5,1.3,1.6,1.6,2.5l0.2,0.8
			l1.5,0l1.5,0l0-3.6c0-2,0-3.9,0.1-4.2l0.1-0.5l-1.2,0c-4.4,0-5.1-0.1-6.4-0.9c-0.9-0.6-1.3-1.1-2.3-2.6l-0.9-1.3l-0.4,0.2
			c-0.7,0.3-1.7,0.4-2.4,0.1c-1.8-0.6-3.1-3.3-3.1-6.1c0-0.9,0.3-2.4,0.6-3.1c0.4-0.9,1.1-2,1.8-2.5c2.4-1.8,5.2,0.2,5.9,4.3
			c0.2,1,0.1,2.6-0.1,3.5l-0.2,0.6l0.8,1.3c0.5,0.8,1,1.4,1.3,1.6c0.9,0.7,1.1,0.7,4.7,0.7h3.3l0.7-1.1l0.7-1.1v-6.7
			c0-5.7,0-6.9-0.1-7.5c-0.4-2.1-1.5-3.9-2.9-4.4c-0.3-0.1-0.9-0.2-1.6-0.2h-1.1l-0.3,0.8c-0.9,2.5-2.9,3.9-4.7,3.2
			c-0.7-0.3-1.4-0.9-1.9-1.7c-0.6-0.9-0.6-1.3-0.7-1.7c-0.3-0.5-0.4-1.1-0.5-2.4c-0.1-1.3,0.1-2.2,0.4-3.3c0.7-2.1,2.2-3.4,3.7-3.4
			c0.7,0,1.7,0.5,2.3,1.1c0.6,0.6,1,1.3,1.4,2.4l0.3,0.8l1.2,0c1.5,0,2.2,0.2,3.2,0.9c1.6,1.1,2.7,2.8,3.4,5.2
			c0.6,1.9,0.6,2.1,0.6,8.9l0,6.1l0.3-0.1c0.2-0.1,1.4-0.1,2.8-0.1l2.4,0l0-2.3l0-2.3l-0.5-0.4c-3-2.4-2.9-9,0.2-11.2
			c0.6-0.5,0.8-0.5,1.5-0.6c0.9-0.1,1.4,0.1,2.2,0.7c1.6,1.3,2.5,4.1,2.1,6.9c-0.2,1.7-1.1,3.4-2.1,4.2l-0.5,0.4v2.3v2.3h2.7h2.7
			l0-7.9c0-4.4,0-8.2,0-8.6l0-0.7l-0.5-0.4c-1.3-0.9-2.2-3.3-2.2-5.5c0-3.5,1.9-6.3,4.2-6.3c3.2,0,5.2,5.2,3.6,9.4
			c-0.3,0.9-1.1,2-1.7,2.4l-0.5,0.4l0,2.8c0,2.2,0,2.7-0.1,2.7c-0.1-0.1-0.1-0.1,0,0.1c0.1,0.1,0.1,1.5,0.1,5.9v5.8l2.6,0
			c1.4,0,2.7,0.1,2.7,0.1c0.1,0.1,0.1-0.9,0.2-8.3c0-9.2,0-8.8,0.6-10.8c0.3-1.2,0.8-2.3,1.5-3.2c1.5-2.2,3.1-3.1,5.4-3.1l1.2,0
			l0.2-0.6c0.5-1.5,1.3-2.7,2.3-3.2c1-0.6,2.4-0.4,3.4,0.4c0.5,0.4,1.5,1.9,1.8,2.6c1,2.9,0.4,6.4-1.4,8.2c-2.1,2.1-5,0.9-6-2.5
			l-0.2-0.7l-1.2,0.1c-0.7,0-1.4,0.2-1.6,0.3c-1.4,0.6-2.6,2.5-2.9,4.7c-0.1,0.7-0.1,2.5-0.1,9.5l0,8.6l0.7,1l0.7,1l3.3,0
			c3,0,3.3-0.1,3.7-0.3c1-0.6,1.9-1.7,2.3-3.2c0.2-0.5,0.3-0.9,0.3-1c0-0.1-0.2-0.3-0.5-0.6c-1.3-1.1-2.2-3.7-2-6
			c0.1-1.1,0.5-2.5,1-3.4c0.5-0.8,1-1.2,1.5-1.7c0.3-0.2,0.6-0.3,0.8-0.5c1.4-0.5,2.9,0.3,3.9,1.9c0.8,1.3,1.1,2.6,1.1,4.3
			c0,2.4-0.9,4.5-2.3,5.6c-0.6,0.5-0.6,0.5-0.7,1.1c-0.5,3.1-2.2,6-4.1,7.2c-1.1,0.7-1.5,0.7-4.4,0.8c-2.5,0.1-2.7,0.1-2.6,0.3
			c0,0.1,0.1,2,0.1,4.2l0,3.9l4,0c2.2,0,4.8,0,5.7,0l1.7,0l0.2-0.7c0.3-1,0.8-1.8,1.4-2.4c0.7-0.6,1.2-0.9,2-1
			c2.9-0.3,5.1,4,4.2,8.3c-0.6,2.6-2.2,4.3-4,4.3c-1.4,0-3-1.5-3.6-3.4c-0.2-0.8-0.2-0.8-0.6-0.8c-0.2,0-2.8,0-5.7,0l-5.4,0v4.2v4.2
			l4.3,0c4.2,0,4.3,0.1,4.9,0.3c0.3,0.2,0.7,0.4,1.1,0.6c0.4,0.2,0.5,0.4,1,0.9c0.3,0.3,0.9,1,1.3,1.7c0.4,0.7,0.8,1.2,0.8,1.2
			c0,0,0.3-0.1,0.6-0.2c1.1-0.5,2.5-0.3,3.5,0.7c2.3,2.3,2.6,7.2,0.5,10c-2.6,3.6-6.9,0.7-6.9-4.7c0-0.8,0-1.3,0.2-1.9l0.2-0.9
			l-0.7-1c-0.7-1.1-1.3-1.7-1.8-2c0,0-0.2-0.2-0.3-0.2c-0.1-0.1-0.1,0-0.3-0.1c-0.1-0.1-1.7-0.1-4.3-0.1h-4.1l0,3.9
			c0,2.1-0.1,4-0.1,4.1c-0.1,0.3,0,0.3,1.2,0.3c0.7,0,1.6,0.2,1.9,0.3c2.2,0.7,4.1,3.3,5,6.5c0.3,1.2,0.5,2.7,0.5,4.6v1.6l0.5,0.4
			c0.3,0.2,0.7,0.7,1,1c1.6,2.2,1.7,6.1,0.4,8.6c0,0-0.1,0.3-0.2,0.4c-0.1,0.1-0.2,0.3-0.3,0.4c-0.8,0.7-1.7,1.4-2.7,1.4
			c-2,0-3.8-2.3-4.1-5.3c-0.3-2.6,0.6-5.3,2.2-6.5l0.5-0.4l0-1.4c0-0.8-0.1-1.8-0.1-2.2c-0.3-2.3-1.5-4.3-3-4.8
			c-0.4-0.1-0.9-0.2-2.3-0.2h-1.8l-0.6,0.9l-0.6,0.9v7.7v7.7l0.5,0.3c1.8,1.3,2.7,4.6,2.1,7.4c-1,4.6-4.7,6-6.9,2.6
			c-0.6-0.9-0.9-1.7-1.1-3c-0.2-1.4-0.1-2.9,0.3-4.4c0.3-0.9,1.2-2.3,1.8-2.7l0.5-0.4v-6.7v-6.7l-0.2,0.1c-0.1,0.1-1.3,0.1-2.7,0.2
			c-1.4,0-2.6,0.1-2.6,0.2c-0.1,0.1,0.1,0.4,0.7,0.9c1.2,1,2.1,3.3,2.1,5.4c0,2.8-1.3,5.4-3.1,6.1c-1.5,0.6-2.9,0-4-1.7
			c-2-3-1.5-7.8,0.9-9.9c0.4-0.3,0.6-0.6,0.6-0.7c0-0.2-0.2-0.2-2.7-0.2h-2.7l0,8.6c0,9.9,0,11.1,0.2,11.6l0.2,0.4l0.2-0.6
			c0.3-0.8,1.1-1.9,1.8-2.4c0.7-0.5,1.6-0.7,2.2-0.6c2.2,0.4,3.8,3,3.8,6.3c0,2.9-1.2,5.2-3,6C189.5,535.8,188.4,535.8,187.9,535.5
			L187.9,535.5z M189.5,531.3c1-0.7,1-2.6,0.1-3.6c-0.3-0.3-0.9-0.2-1.3-0.1c-0.5,0.1-0.6,0.6-0.7,1c-0.1,0.9,0,2.2,0.6,2.7
			c0.2,0.2,0.5,0.3,0.6,0.3C189,531.5,189.3,531.4,189.5,531.3L189.5,531.3z M200.7,527c0.3-0.2,0.6-1,0.7-1.5
			c0.1-0.9-0.4-2-1.1-2.3c-0.9-0.4-1.9,1.1-1.7,2.5C198.9,527.1,199.9,527.7,200.7,527z M175.7,522.9c0.6-0.4,0.9-1.6,0.6-2.5
			c-0.5-1.9-2.1-1.9-2.6,0c-0.2,0.7-0.1,1.2,0.2,1.8C174.3,523,175,523.3,175.7,522.9z M211.8,518.7c0.3-0.2,0.4-0.4,0.6-0.9
			c0.4-1.5-0.1-2.8-1.1-3c-0.4,0-0.5,0-0.8,0.2c-0.2,0.1-0.3,0.2-0.4,0.2c-0.1,0-0.1,0,0,0.1c0,0.1,0,0.3-0.1,0.6
			c-0.3,0.8-0.2,2,0.3,2.6C210.6,519,211.2,519.1,211.8,518.7L211.8,518.7z M161.9,518.5c0.4-0.4,0.6-0.9,0.6-1.5
			c0.1-0.7,0-1.1-0.3-1.6c-0.3-0.6-0.7-0.8-1.1-0.7c-0.7,0.1-1.2,0.8-1.3,1.9c-0.1,1,0.3,1.8,0.8,2.1
			C160.9,518.9,161.6,518.8,161.9,518.5L161.9,518.5z M192.4,514.4c0.5-0.4,0.8-1.4,0.7-2.4c-0.3-1.5-1.6-2.1-2.3-0.9
			C189.6,512.9,191,515.6,192.4,514.4L192.4,514.4z M197.7,501.9c1.5-0.3,2.8-2,3.4-4.3l0.2-0.8v-15.7v-15.7l-0.2-0.9
			c-0.4-2.2-1.5-3.7-3-4.2c-0.6-0.2-0.9-0.3-10.9-0.2l-10.2,0l-0.5,0.3c-0.7,0.4-1.2,0.9-1.7,1.7c-0.5,0.8-0.7,1.3-1,2.3l-0.2,0.7
			l0,15.5c0,13.8,0,15.6,0.1,16.4c0.4,2.7,1.7,4.6,3.5,5C177.9,502,197.1,502,197.7,501.9L197.7,501.9z M180,495.6
			c-0.5-0.2-1.2-0.8-1.2-1c0-0.1,0-0.2-0.1-0.1c-0.2,0.2-0.7-0.9-0.9-1.9c-0.2-1.1-0.2-21.8,0-22.9c0.3-1.6,1.1-2.8,2.2-3.1
			c0.4-0.1,2.6-0.1,7.7-0.1l7.2,0l0.5,0.4c0.6,0.4,1.1,1.2,1.4,2.2l0.2,0.8V481v11.4l-0.3,0.9c-0.2,0.6-0.3,0.9-0.4,0.9
			c-0.1,0-0.1,0-0.1,0.1c0.1,0.2-0.3,0.7-0.8,1.1l-0.5,0.4l-7.3,0C183.7,495.7,180.2,495.6,180,495.6z M220.3,497.5
			c0.8-0.9,0.8-2.8-0.2-3.5c-0.5-0.4-0.9-0.4-1.3,0c-0.5,0.4-0.7,1-0.7,1.8c0,0.9,0.3,1.7,0.8,2C219.3,497.9,220,497.8,220.3,497.5
			L220.3,497.5z M156.3,489.2c0.6-0.5,0.8-1.8,0.5-2.8c-0.2-0.7-0.7-1.1-1.3-1.1c-0.5,0-0.5,0-0.8,0.5c-0.5,0.8-0.6,1.6-0.3,2.5
			C154.7,489.4,155.6,489.8,156.3,489.2z M164.6,476.6c0.4-0.4,0.6-0.9,0.6-1.8c0-0.7,0-0.9-0.2-1.3c-0.3-0.7-1-0.9-1.5-0.7
			c-0.5,0.2-0.8,0.9-0.9,1.6c-0.1,0.3,0,0.6,0,0.9c0.1,0.6,0.6,1.4,0.9,1.6C163.8,476.9,164.3,476.8,164.6,476.6L164.6,476.6z
			 M219.9,476.8c0.4-0.2,0.9-1,1-1.6c0.2-1.5-0.7-2.9-1.7-2.5c-0.4,0.2-0.7,0.4-0.8,1c-0.4,1.2,0,2.6,0.8,3
			C219.4,476.9,219.5,476.9,219.9,476.8L219.9,476.8z M158.9,455.6c0.4-0.2,0.8-1,0.9-1.7c0.1-0.7-0.2-1.5-0.6-2
			c-0.4-0.4-1-0.5-1.4-0.2c-0.7,0.5-1,2.1-0.5,3.1C157.7,455.7,158.3,456,158.9,455.6z M214.3,451.5c1-0.4,1.4-2.4,0.6-3.5
			c-0.9-1.3-2.3-0.4-2.3,1.5c0,1,0.3,1.7,0.9,2C213.9,451.7,213.9,451.7,214.3,451.5L214.3,451.5z M183.9,447.2
			c0.3-0.2,0.7-0.9,0.8-1.4c0.1-0.7,0-1.3-0.3-1.9c-0.4-0.8-1.1-0.8-1.6-0.6c-0.4,0.2-0.7,1-0.8,1.3c-0.3,1,0.2,2.1,0.8,2.5
			C183.1,447.4,183.6,447.4,183.9,447.2L183.9,447.2z M164.5,438.8c0.5-0.4,0.8-0.9,0.8-1.9c0-0.7,0-0.9-0.2-1.2
			c-0.3-0.6-0.6-0.8-1.1-0.9c-1.3,0-1.9,2.4-0.9,3.7C163.6,439.1,164,439.2,164.5,438.8L164.5,438.8z M212,434.4
			c0.7-0.7,0.7-2.6,0-3.4c-1.2-1.2-2.6,0.7-2,2.6C210.3,434.8,211.2,435.1,212,434.4L212,434.4z M192.4,434.5c1-0.7,0.9-3-0.1-3.7
			c-0.4-0.3-0.9-0.3-1.3-0.1c-0.3,0.2-0.5,0.6-0.6,1.1c-0.1,0.3-0.1,0.5-0.1,0.8C190.3,434.3,191.4,435.2,192.4,434.5L192.4,434.5z"
			/>
		<path id="path3850" class="st6" d="M257.8,456.1c-1-0.8-2.1-3-2.3-4.6c-0.2-1.7,0.2-3.4,1.4-5.1l1.1-1.6v-19.6v-19.6h-1.4h-1.4
			v6.4v6.4l-0.6,0.7c-0.3,0.4-1.2,1.4-2.1,2.2l-1.5,1.5l0,5.9l0,5.9l0.8,0.8c0.9,0.9,1.8,3.4,1.8,4.9c0,1.6-0.9,4-1.9,5
			c-1.7,1.6-3.2,1.4-4.6-0.6c-2-2.7-2-5.8-0.1-8.7l1.1-1.6v-6.7c0-4.9,0.1-6.8,0.2-7.2c0.1-0.3,1.1-1.3,2.1-2.4l1.8-1.9v-5.3v-5.3
			h-1.2H250l-0.1,3.1c-0.1,2.7-0.1,3.2-0.5,3.7c-0.2,0.3-1.6,1.3-3,2.2c-1.4,0.9-2.7,1.7-2.8,1.9c-0.1,0.2-0.5,1.9-0.8,3.9l-0.6,3.6
			l0.6,0.9c1.7,2.8,1.6,6.1-0.4,8.7c-1.3,1.7-3.1,1.8-4.6,0.3c-2.6-2.7-2.3-8.2,0.6-10.3l1-0.8l0.7-4.5c0.4-2.5,0.9-4.7,1.1-5
			c0.2-0.3,1.5-1.2,3-2.2l2.7-1.6l0.1-2c0-1.3,0-2-0.2-2c-0.1,0-0.4-0.3-0.7-0.7c-0.5-0.7-0.5-0.9-0.5-5.1v-4.4l-3.6,0l-3.6,0
			l-1.2,2.7c-0.6,1.5-1.4,2.9-1.6,3.1c-0.3,0.3-1.3,0.4-4.8,0.4h-4.4l-0.8,1.3c-1.4,2.3-3,2.9-4.5,1.7c-1-0.8-2.2-2.8-2.3-4.1
			c-0.5-3.7,1.2-7,3.7-7.2c1-0.1,1.3,0,2.1,0.7c0.5,0.4,1.1,1.3,1.4,2l0.5,1.2h3.8h3.8l1-2.4c0.6-1.3,1.2-2.7,1.5-3.1l0.5-0.8h4.3
			h4.3v-2.1v-2.1h-13.1h-13.1l-0.8,1.4c-1,1.6-1.7,2.2-3.1,2.2c-2,0-3.9-2.9-3.9-6c0-4.2,3.1-7.3,5.5-5.4c0.8,0.6,2,2.5,2,3.1
			c0,0.2,4.8,0.3,13.2,0.3h13.2V380v-2.1h-4.3H237l-0.5-0.8c-0.3-0.4-0.9-1.8-1.5-3.1l-1-2.4l-3.9,0l-3.9,0l-0.4,1
			c-1.1,2.5-3.4,3.4-5.1,1.8c-2.4-2.1-2.8-6.7-0.8-9.5c1.7-2.5,4.1-2.2,5.7,0.8l0.8,1.4h4.4c3.5,0,4.5,0.1,4.8,0.4
			c0.2,0.2,0.9,1.7,1.6,3.1l1.2,2.7l3.6,0l3.6,0v-4.8c0-4.7,0-4.8,0.5-5.5c0.3-0.4,0.6-0.7,0.7-0.7c0.3,0,0.3-2.9,0-3.2
			c-0.1-0.2-1.4-1-2.7-1.9c-1.4-0.9-2.6-1.8-2.8-2.1c-0.2-0.3-0.7-2.5-1.1-5l-0.7-4.5l-1-0.8c-0.7-0.5-1.2-1.2-1.7-2.2
			c-1.2-2.8-0.7-6.2,1.2-8.2c2-2,4.7-0.6,5.7,3c0.6,2.2,0.3,4.2-0.9,6.1l-0.6,0.9l0.6,3.6c0.3,2,0.7,3.8,0.8,3.9
			c0.1,0.2,1.4,1.1,2.8,1.9c1.4,0.9,2.8,1.8,3,2.1c0.3,0.5,0.4,1,0.5,3.4l0.1,2.8h1.2h1.2v-5.1v-5.1l-1.9-1.9c-1-1-2-2.1-2.1-2.4
			c-0.1-0.3-0.2-3.6-0.2-7.3v-6.7l-0.7-0.7c-0.8-0.9-1.5-2.3-1.7-3.8c-0.6-3.5,2.1-7.9,4.5-7.1c2.1,0.7,3.7,3.9,3.4,6.8
			c-0.2,1.5-1,3.5-1.9,4.3l-0.6,0.5l0,5.9l0,5.9l1.5,1.5c0.8,0.8,1.8,1.8,2.1,2.3l0.6,0.8v6v6h1.4h1.4V343v-19.3l-1.1-1.6
			c-1.7-2.5-1.9-4.7-0.7-7.5c0.6-1.5,2.2-2.9,3.3-2.9c1,0,2.6,1.4,3.2,2.9c1.2,2.8,1,5.1-0.7,7.6l-1.1,1.6V343v19.3h1.4h1.4v-6.1
			v-6.1l0.6-0.8c0.4-0.4,1.3-1.4,2-2.2l1.4-1.4l0.1-5.8l0.1-5.8l-0.7-0.7c-0.9-0.9-1.7-2.8-1.8-4.4c-0.1-2,0.7-4.4,1.9-5.6
			c1.8-1.7,3.3-1.4,4.8,0.9c1.8,2.7,1.8,5.6-0.1,8.4l-1.1,1.6v6.7c0,7.8,0.2,6.8-2.4,9.6l-1.7,1.8v5v5h1.2h1.2l0.1-2.8
			c0.1-2.4,0.1-2.9,0.5-3.4c0.2-0.3,1.6-1.3,3-2.1c1.4-0.9,2.7-1.7,2.8-1.9c0.1-0.2,0.5-1.9,0.8-3.8l0.6-3.5l-0.6-1
			c-1.6-2.6-1.5-6,0.2-8.4c1.8-2.5,3.8-2.3,5.5,0.4c1.8,2.9,1.2,7.4-1.3,9.2l-1,0.8l-0.7,4.4c-0.4,2.4-0.9,4.7-1.1,5
			c-0.2,0.3-1.4,1.3-2.8,2.1s-2.6,1.6-2.7,1.7c-0.2,0.1-0.2,0.8-0.2,1.8c0,1.5,0,1.6,0.5,1.6c0.3,0,0.7,0.3,0.9,0.6
			c0.5,0.6,0.5,0.7,0.5,5.5l0.1,5l3.5,0l3.5,0l1-2.3c0.5-1.3,1.2-2.7,1.5-3.1l0.5-0.8h4.5h4.5l0.8-1.4c1.6-3,4-3.3,5.7-0.8
			c2,2.9,1.6,7.4-0.8,9.5c-1.7,1.5-4,0.7-5.1-1.8l-0.4-1l-3.9,0l-3.9,0l-1.2,2.6c-1.8,4-1.2,3.7-6,3.7h-4.2v2.1v2.1h13.1
			c8.3,0,13.1-0.1,13.1-0.3c0-0.6,1.3-2.4,2-3c1.7-1.3,3.7-0.3,4.9,2.2c0.9,2.1,0.9,4.3,0,6.3c-1.1,2.5-3.2,3.5-4.8,2.3
			c-0.4-0.3-1-1.1-1.4-1.8l-0.8-1.3h-13h-13v2.1v2.1h4.1c2.2,0,4.2,0.1,4.4,0.3c0.2,0.2,0.9,1.6,1.6,3.1l1.2,2.9h3.8h3.8l0.5-1.2
			c0.3-0.7,0.9-1.5,1.4-2c2.4-2.1,5.6,0.5,5.8,4.8c0.2,4.3-2.9,7.8-5.4,6c-0.4-0.3-1-1.1-1.5-1.8l-0.8-1.3h-4.4
			c-3.5,0-4.5-0.1-4.8-0.4c-0.2-0.2-0.9-1.7-1.6-3.1l-1.2-2.7l-3.5,0l-3.5,0l-0.1,4.5c-0.1,4.3-0.1,4.5-0.5,5.1
			c-0.3,0.3-0.7,0.6-0.9,0.6c-0.5,0-0.5,0.1-0.4,2l0.1,2l2.8,1.7c1.5,1,2.9,2,3,2.2c0.1,0.3,0.6,2.5,1,5c0.7,4.3,0.8,4.5,1.3,4.8
			c3.2,1.7,3.7,7.9,0.8,10.8c-0.6,0.6-1,0.7-2,0.7c-1.1,0-1.4-0.1-2-0.8c-2.2-2.5-2.5-5.9-1-8.7l0.8-1.3l-0.6-3.7
			c-0.3-2-0.7-3.8-0.8-3.9c-0.1-0.1-1.4-1-2.8-1.8c-3.4-2.1-3.5-2.2-3.5-6v-3h-1.2h-1.2v5.4v5.4l1.8,1.8c1,1,1.9,2.1,2.1,2.3
			c0.2,0.3,0.2,2.3,0.2,7.2v6.7l0.9,1.2c1.1,1.5,1.5,2.7,1.5,4.6c0,1.8-0.4,3-1.4,4.4c-1.5,2-3,2.2-4.7,0.4
			c-2.4-2.4-2.4-7.2-0.1-9.6l0.9-0.9v-5.8v-5.8l-1.6-1.7c-2.8-2.9-2.5-1.9-2.5-9.3v-6.4h-1.4H261v19.7v19.7l1.1,1.5
			c1.7,2.5,1.9,4.8,0.7,7.6c-0.8,1.7-2,2.8-3.2,2.8C259.1,456.8,258.3,456.5,257.8,456.1L257.8,456.1z M260.4,451.9
			c0.3-0.4,0.3-1.7,0-2.3c-0.2-0.5-1.6-0.5-1.8,0.1c-0.2,0.6-0.2,1.8,0.1,2.3c0.1,0.2,0.5,0.4,0.9,0.4
			C259.9,452.3,260.3,452.1,260.4,451.9L260.4,451.9z M250.5,441.4c0.1-0.2,0.2-0.8,0.2-1.3c0-1.1-0.3-1.6-1-1.6
			c-0.7,0-1.2,0.7-1.2,1.6c0,0.4,0.1,0.9,0.3,1.2C249.2,441.9,250.1,441.9,250.5,441.4L250.5,441.4z M270.2,441.3
			c0.7-1.1,0.2-2.8-0.9-2.8c-0.7,0-1,0.5-1,1.6c0,0.5,0.1,1.1,0.2,1.3C268.9,441.9,269.8,441.9,270.2,441.3z M240.9,428.9v-1.3
			l-0.8-0.1c-0.7-0.1-0.9,0-1.1,0.7c-0.2,0.6-0.2,1,0,1.5c0.2,0.7,0.3,0.8,1.1,0.7l0.8-0.1V428.9z M280,429.6c0.1-0.5,0.1-1,0-1.5
			c-0.2-0.7-0.3-0.8-1-0.7c-0.8,0.1-0.8,0.1-0.9,1.1c-0.1,1.5,0.1,1.8,1,1.8C279.7,430.4,279.9,430.3,280,429.6L280,429.6z
			 M271.1,383.9v-17.1h-11.3h-11.3v17.1V401h11.3h11.3V383.9z M253.7,394.1c-0.2-0.2-0.5-0.6-0.6-1.1c-0.2-0.8-0.3-16.9-0.1-18.1
			c0.3-1.4,0.8-1.6,6.9-1.6h5.6l0.6,0.7l0.6,0.7v9v9l-0.6,0.7l-0.6,0.7l-5.7,0C256.7,394.4,254,394.2,253.7,394.1L253.7,394.1z
			 M263.7,383.9v-5.8l-3.9-0.1l-3.9-0.1v6v6l3.9-0.1l3.9-0.1V383.9z M223.6,399.3c0.1-1.1,0-1.3-0.4-1.6c-0.8-0.6-1.5,0.1-1.5,1.5
			c0,1.5,0.1,1.6,1.1,1.5C223.5,400.6,223.5,400.5,223.6,399.3L223.6,399.3z M297.8,399.3c0.1-1.1,0-1.3-0.4-1.6
			c-1.1-0.6-1.9,0.6-1.5,2.2c0.2,0.7,0.3,0.8,1,0.7C297.7,400.6,297.7,400.5,297.8,399.3z M216.2,385.7c0.5-0.3,0.5-0.4,0.5-1.6
			c-0.1-1.3-0.1-1.3-0.8-1.4c-1.2-0.1-1.7,1.4-0.9,2.6C215.3,386.1,215.5,386.1,216.2,385.7z M304.8,385c0.2-0.6,0.2-0.9,0-1.5
			c-0.2-0.7-0.3-0.8-1.1-0.7c-0.8,0.1-0.8,0.1-0.9,1.1c-0.1,1.5,0.1,1.8,1,1.8C304.4,385.7,304.6,385.6,304.8,385L304.8,385z
			 M223.3,370.6c0.3-0.3,0.3-0.7,0.3-1.6l-0.1-1.2h-0.9h-0.9l-0.1,1.2c-0.1,1.2,0.3,2,1,2C222.8,371,223.1,370.8,223.3,370.6z
			 M297.5,370.6c0.3-0.3,0.3-0.7,0.3-1.6c-0.1-1.2-0.1-1.2-0.9-1.3c-0.7-0.1-0.9,0-1,0.7C295.4,370.2,296.5,371.7,297.5,370.6z
			 M240.9,340.7c0.1-0.1,0.1-0.7,0.1-1.4c-0.1-1.1-0.1-1.2-0.8-1.3c-1.2-0.2-1.7,1.4-0.9,2.7C239.6,341.3,240.5,341.3,240.9,340.7
			L240.9,340.7z M279.5,341.1c0.5-0.3,0.7-1.5,0.5-2.4c-0.2-0.7-0.3-0.8-1-0.7l-0.8,0.1v1.3c0,1.2,0.1,1.4,0.5,1.5
			c0.3,0.1,0.5,0.2,0.5,0.2C279.2,341.3,279.3,341.2,279.5,341.1L279.5,341.1z M250.5,329.6c0.1-0.2,0.2-0.8,0.2-1.4
			c0-0.8-0.1-1.1-0.5-1.3c-1.1-0.8-2,0.6-1.5,2.3c0.2,0.6,0.4,0.7,0.9,0.7C250,329.9,250.4,329.8,250.5,329.6z M270.4,329.2
			c0.5-1.7-0.4-3.1-1.5-2.3c-0.4,0.3-0.5,0.6-0.5,1.3c0,1.3,0.3,1.7,1.1,1.7C270,329.9,270.2,329.8,270.4,329.2z M260.3,319
			c0.4-0.6,0.4-2,0.1-2.5c-0.3-0.5-1.4-0.5-1.7,0c-0.4,0.6-0.3,2.3,0.1,2.6C259.3,319.6,260,319.5,260.3,319L260.3,319z"/>
	</g>
	<g id="g3714" transform="translate(-4.4419642)">
		<g id="text3693">
			<path id="path3900" class="st7" d="M98.9,121.4H68.7l-6.5,14.5h-6L81,81.6h5.7l24.8,54.3h-6L98.9,121.4z M96.8,116.8l-13-29.2
				l-13,29.2H96.8z"/>
			<path id="path3902" class="st7" d="M140.8,81.6c6.9,0,12.4,1.7,16.3,5c3.9,3.3,5.9,7.9,5.9,13.6c0,5.8-2,10.3-5.9,13.6
				c-3.9,3.3-9.4,4.9-16.3,4.9h-14.6v17.1h-5.7V81.6H140.8z M140.6,113.8c5.4,0,9.5-1.2,12.3-3.5c2.8-2.4,4.3-5.7,4.3-10
				c0-4.4-1.4-7.8-4.3-10.1c-2.8-2.4-7-3.6-12.3-3.6h-14.4v27.1L140.6,113.8z"/>
			<path id="path3904" class="st7" d="M206.8,121.4h-30.2l-6.5,14.5h-6l24.8-54.3h5.7l24.8,54.3h-6L206.8,121.4z M204.7,116.8
				l-13-29.2l-13,29.2H204.7z"/>
			<path id="path3906" class="st7" d="M251.1,136.4c-5.4,0-10.2-1.2-14.6-3.6c-4.3-2.4-7.7-5.7-10.2-9.8c-2.4-4.2-3.6-9-3.6-14.2
				c0-5.2,1.2-9.9,3.6-14.1c2.5-4.2,5.9-7.5,10.2-9.9c4.3-2.4,9.2-3.6,14.6-3.6c4,0,7.8,0.7,11.2,2c3.4,1.3,6.3,3.3,8.7,5.9
				l-3.6,3.6c-4.2-4.3-9.6-6.4-16.1-6.4c-4.3,0-8.2,1-11.7,2.9c-3.5,2-6.3,4.7-8.3,8.1c-2,3.4-2.9,7.2-2.9,11.5
				c0,4.2,1,8.1,2.9,11.5c2,3.4,4.8,6.1,8.3,8.1c3.5,2,7.4,2.9,11.7,2.9c6.5,0,11.9-2.2,16.1-6.5l3.6,3.6c-2.4,2.6-5.3,4.6-8.8,6
				C258.9,135.7,255.1,136.4,251.1,136.4L251.1,136.4z"/>
			<path id="path3908" class="st7" d="M328.6,81.6v54.3H323v-25h-34v25h-5.7V81.6h5.7v24.2h34V81.6H328.6z"/>
			<path id="path3910" class="st7" d="M384.7,131v5h-38.4V81.6h37.2v5H352v19.3h28.1v4.9H352V131L384.7,131z"/>
		</g>
		<g id="text3697" transform="scale(1.0195789,0.98079707)">
			<path id="path3889" class="st8" d="M228.6,152.6c5.3,0,9.5,1.3,12.5,3.8c3,2.5,4.5,6,4.5,10.5c0,4.4-1.5,7.9-4.5,10.5
				c-3,2.5-7.2,3.7-12.5,3.7h-12.1V195h-3.1v-42.3H228.6z M228.6,178.3c4.5,0,8-1,10.3-3c2.4-2,3.6-4.8,3.6-8.5s-1.2-6.5-3.6-8.5
				c-2.4-2-5.8-3-10.3-3h-12.1v22.9H228.6z"/>
			<path id="path3891" class="st8" d="M285.3,192.2v2.8h-29.2v-42.3h28.3v2.8h-25.2v16.7h22.6v2.7h-22.6v17.4H285.3z"/>
			<path id="path3893" class="st8" d="M304.7,155.4h-15.2v-2.8H323v2.8h-15.2V195h-3.1V155.4z"/>
			<path id="path3895" class="st8" d="M360,195l-10.1-14.2c-1.5,0.2-2.9,0.3-4.1,0.3h-12.1V195h-3.1v-42.3h15.2
				c5.3,0,9.5,1.3,12.5,3.8c3,2.5,4.5,6,4.5,10.5c0,3.3-0.9,6.2-2.6,8.5c-1.7,2.3-4.1,3.8-7.3,4.8l10.6,14.8H360z M345.8,178.4
				c4.5,0,8-1,10.3-3c2.4-2,3.6-4.9,3.6-8.5s-1.2-6.5-3.6-8.5c-2.4-2-5.8-3-10.3-3h-12.1v23H345.8z"/>
			<path id="path3897" class="st8" d="M374.2,152.6h3.1V195h-3.1V152.6z"/>
		</g>
	</g>
	<path id="path3887" class="st9" d="M154.6,204.2c-0.5-0.1-1-0.5-1.2-1c-0.1-0.3-0.1-0.3-0.1-0.8c0-0.4,0-0.5,0.1-0.8
		c0.2-0.4,0.5-0.7,0.9-0.9c0.3-0.1,0.4-0.1,0.8-0.1c0.4,0,0.5,0,0.8,0.1c0.4,0.2,0.7,0.4,0.8,0.7l0.1,0.2l1.1,0l1.1,0l0-0.9l0-0.9
		h-0.6c-1,0-1.2-0.1-1.2-1l0-0.5h-0.6c-0.5,0-0.6,0-0.7,0.1c0,0.1-0.2,0.2-0.3,0.2c-0.5,0.2-1,0.1-1.4-0.2c-0.1-0.1-0.2-0.1-0.4-0.1
		c-0.1,0-0.3,0-0.3,0c0,0-0.1,0.2-0.2,0.3c-0.4,0.5-1,0.8-1.6,0.7c-1.1-0.1-1.9-1.1-1.7-2.1c0.1-0.6,0.4-1,0.8-1.3
		c0.8-0.6,2-0.3,2.6,0.5c0.2,0.3,0.2,0.3,0.4,0.3c0.2,0,0.3,0,0.4-0.1c0.4-0.4,1.2-0.4,1.6,0c0.1,0.1,0.1,0.1,0.7,0.1h0.6v-0.9V195
		h-0.6c-0.5,0-0.6,0-0.7,0.1c0,0-0.2,0.1-0.3,0.2c-0.5,0.3-1.3,0.1-1.6-0.3c-0.4-0.6-0.2-1.5,0.5-1.8c0.4-0.2,0.9-0.1,1.3,0.2
		l0.2,0.2h0.6h0.6v-0.7v-0.7h-0.6c-0.6,0-0.6,0-0.7,0.1c-0.3,0.4-0.9,0.4-1.4,0.2c-0.1-0.1-0.3-0.2-0.3-0.2
		c-0.1-0.1-0.1-0.1-1.2-0.1c-1.3,0-1.4,0-1.6-0.4c-0.1-0.2-0.1-0.2-0.1-1.2v-1.1l-0.2-0.1c-0.3-0.2-0.6-0.5-0.8-0.8
		c-0.4-0.9,0-1.9,0.8-2.4c0.3-0.2,0.4-0.2,0.8-0.2c0.5,0,0.5,0,0.8,0.1c0.8,0.4,1.2,1.2,1,2c0,0.2-0.1,0.4-0.2,0.5
		c-0.1,0.2-0.5,0.6-0.7,0.7l-0.2,0.1v0.6v0.6l0.1,0c0.1,0,0.4,0,0.7,0l0.6,0l0.2-0.2c0.5-0.4,1.1-0.4,1.6,0l0.2,0.2l0.6,0l0.6,0
		l0-0.7c0-0.7,0-0.8,0.1-0.9c0.2-0.2,0.4-0.3,1-0.3h0.6v-1.2v-1.2l-0.2-0.2c-0.5-0.3-0.8-0.8-0.9-1.4c-0.1-0.8,0.3-1.4,1-1.8
		c0.3-0.1,0.3-0.2,0.8-0.2c0.4,0,0.5,0,0.8,0.2c0.4,0.2,0.7,0.5,0.9,0.9c0.2,0.4,0.2,1.1,0,1.5c-0.2,0.3-0.4,0.7-0.7,0.9l-0.2,0.2
		v1.2v1.2h1.1h1.1v-0.9c0-0.9,0-0.9-0.1-1c-0.2-0.2-0.3-0.4-0.3-0.7c-0.1-0.8,0.6-1.5,1.4-1.3c0.9,0.2,1.3,1.3,0.7,2l-0.2,0.2v0.9
		v0.9h1.1h1.1v-0.9v-0.9l-0.2-0.2c-0.5-0.5-0.4-1.3,0.2-1.7c0.3-0.2,0.6-0.3,0.9-0.2c0.2,0,0.7,0.3,0.7,0.4c0,0,0.4,0,1.1,0l1.1,0
		l0.2-0.3c0.4-0.6,0.9-0.8,1.7-0.8c0.5,0,0.8,0.2,1.2,0.5c0.6,0.6,0.7,1.6,0.2,2.3c-0.2,0.3-0.4,0.5-0.8,0.7c-0.4,0.2-1,0.2-1.4,0
		c-0.4-0.1-0.7-0.5-0.9-0.8l-0.1-0.2h-1h-1l-0.1,0.1l-0.1,0.1v0.9v0.9l0.5,0c0.4,0,0.5,0,0.6,0.1c0.3,0.2,0.3,0.4,0.3,0.9l0,0.5
		l0.8,0l0.8,0l0.2-0.2c0.7-0.6,1.9-0.2,2,0.8c0.1,0.7-0.5,1.3-1.2,1.3c-0.3,0-0.5-0.1-0.8-0.3l-0.2-0.2l-0.8,0c-0.5,0-0.8,0-0.8,0.1
		c0,0,0,0.5,0,1.1v1.1h0.2c0.2,0,0.3,0,0.4-0.1c0.2-0.2,0.5-0.3,0.8-0.4c0.7,0,1.2,0.5,1.2,1.2c0,1-1.2,1.6-2,0.9
		c-0.2-0.2-0.2-0.2-0.5-0.2h-0.2v0.6v0.6h0.6c0.5,0,0.6,0,0.7-0.1c0.1-0.2,0.6-0.4,0.9-0.4c0.3,0,0.7,0.2,0.9,0.4
		c0.4,0.4,0.4,1.3,0,1.6l-0.1,0.1v1.1v1.1l0.2,0.1c0.3,0.2,0.6,0.5,0.7,0.8c0.1,0.3,0.1,0.3,0.1,0.8c0,0.5,0,0.5-0.2,0.8
		c-0.2,0.4-0.5,0.7-0.9,0.9c-0.2,0.1-0.4,0.1-0.7,0.1c-0.9,0-1.6-0.5-1.8-1.4c-0.2-0.8,0.1-1.6,0.8-2l0.3-0.2l0-1.1
		c0-1,0-1.1-0.1-1.2c-0.1-0.1-0.1-0.1-0.8-0.1h-0.6l-0.1,0.3c-0.2,0.4-0.7,0.9-1,1.1l-0.2,0.1v1.2v1.2l0.2,0.2
		c0.2,0.3,0.4,0.7,0.3,1c-0.1,0.6-0.6,1-1.2,1c-1.1,0-1.6-1.3-0.8-2.1l0.1-0.1v-1.1v-1.1h-1.1h-1.1v1.1c0,1.1,0,1.1,0.1,1.2
		c0.1,0.1,0.2,0.2,0.2,0.3c0.2,0.3,0.2,0.8,0,1.1c-0.6,1.1-2.2,0.7-2.3-0.5c0-0.3,0.1-0.6,0.3-0.8l0.2-0.2v-1.1v-1.1h-1.1h-1.1v0.9
		v0.9l0.2,0.2c0.2,0.2,0.3,0.5,0.3,0.8c0,0.6-0.5,1.2-1.2,1.2c-0.3,0-0.6-0.1-0.9-0.4l-0.3-0.3l-0.9,0c-0.5,0-0.9,0-0.9,0
		c0,0-0.1,0.1-0.1,0.2C156.3,203.9,155.3,204.4,154.6,204.2L154.6,204.2z M155.2,202.7c0.3-0.1,0.3-0.5,0.1-0.7
		c-0.4-0.3-0.9,0.1-0.6,0.5c0.1,0.1,0.2,0.2,0.3,0.2C155.1,202.8,155.1,202.8,155.2,202.7L155.2,202.7z M171.8,202.6
		c0.2-0.2,0.1-0.5-0.1-0.6c-0.2-0.2-0.6,0-0.6,0.4C171.1,202.8,171.5,202.9,171.8,202.6L171.8,202.6z M167.5,198.2
		c0.1,0,0.2-0.1,0.3-0.2c0.1-0.1,0.1-0.2,0.1-4v-3.9l-4.6,0l-4.6,0v4.1v4.1h4.4C166.7,198.3,167.4,198.3,167.5,198.2L167.5,198.2z
		 M161,196.9c-0.2-0.1-0.4-0.3-0.5-0.5c0-0.1,0-1.1,0-2.3c0-2,0-2.1,0.1-2.3c0.2-0.3,0.2-0.3,2.6-0.3c2.4,0,2.4,0,2.6,0.3l0.1,0.2
		l0,2.3l0,2.3l-0.2,0.2c-0.1,0.1-0.2,0.2-0.3,0.2c-0.1,0-1,0-2.2,0C161.6,197,161.2,197,161,196.9L161,196.9z M164.5,194.2V193h-1.3
		H162l0,1.2c0,0.7,0,1.3,0,1.3c0,0,0.6,0,1.3,0h1.3L164.5,194.2z M152.1,197.8c0.2-0.1,0.2-0.2,0.2-0.4c0-0.2-0.1-0.3-0.2-0.4
		c-0.5-0.3-0.9,0.5-0.4,0.7C151.9,197.9,151.9,197.9,152.1,197.8L152.1,197.8z M152.2,188c0.3-0.2,0.1-0.7-0.3-0.7
		c-0.4,0-0.6,0.6-0.2,0.8C151.9,188.2,152,188.1,152.2,188L152.2,188z M172.2,186.2c0.2-0.2,0.1-0.5,0-0.6c-0.4-0.3-0.9,0.2-0.6,0.6
		C171.8,186.4,172.1,186.4,172.2,186.2L172.2,186.2z M160,184.9c0,0,0.1-0.2,0.1-0.2c0-0.1,0-0.2-0.1-0.3c-0.2-0.2-0.4-0.2-0.6,0
		c-0.2,0.2-0.2,0.3-0.1,0.5C159.5,185.1,159.8,185.1,160,184.9L160,184.9z M173.7,196.6c-1-0.3-1.5-1.2-1.4-2.1
		c0.1-0.6,0.4-1.1,1-1.4c0.3-0.1,0.4-0.2,0.8-0.2c0.4,0,0.5,0,0.7,0.1c0.8,0.3,1.2,0.9,1.2,1.8c0,1-0.8,1.8-1.8,1.8
		C174,196.6,173.8,196.6,173.7,196.6L173.7,196.6z M174.4,195c0.1-0.2,0.1-0.4,0-0.6c-0.3-0.3-0.7-0.1-0.7,0.3c0,0.1,0,0.2,0.1,0.3
		C174,195.2,174.3,195.2,174.4,195L174.4,195z"/>
</g>
</svg>
